<?xml version="1.0" encoding="UTF-8" standalone="no"?>
<!-- Created with Inkscape (http://www.inkscape.org/) -->

<svg
   xmlns:dc="http://purl.org/dc/elements/1.1/"
   xmlns:cc="http://creativecommons.org/ns#"
   xmlns:rdf="http://www.w3.org/1999/02/22-rdf-syntax-ns#"
   xmlns:svg="http://www.w3.org/2000/svg"
   xmlns="http://www.w3.org/2000/svg"
   xmlns:xlink="http://www.w3.org/1999/xlink"
   xmlns:sodipodi="http://sodipodi.sourceforge.net/DTD/sodipodi-0.dtd"
   xmlns:inkscape="http://www.inkscape.org/namespaces/inkscape"
   width="744.09448819"
   height="1052.3622047"
   id="svg2"
   version="1.1"
   inkscape:version="0.48.1 r9760"
   sodipodi:docname="icon.svg">
  <defs
     id="defs4">
    <linearGradient
       id="linearGradient3930">
      <stop
         style="stop-color:#ffffff;stop-opacity:0;"
         offset="0"
         id="stop3932" />
      <stop
         style="stop-color:#ffffff;stop-opacity:1;"
         offset="1"
         id="stop3934" />
    </linearGradient>
    <linearGradient
       inkscape:collect="always"
       id="linearGradient3920">
      <stop
         style="stop-color:#ffffff;stop-opacity:1;"
         offset="0"
         id="stop3922" />
      <stop
         style="stop-color:#ffffff;stop-opacity:0;"
         offset="1"
         id="stop3924" />
    </linearGradient>
    <linearGradient
       id="linearGradient3860">
      <stop
         style="stop-color:#008000;stop-opacity:1;"
         offset="0"
         id="stop3862" />
      <stop
         style="stop-color:#ffffff;stop-opacity:1;"
         offset="1"
         id="stop3864" />
    </linearGradient>
    <inkscape:path-effect
       effect="skeletal"
       id="path-effect5616"
       is_visible="true"
       pattern="m 178.06046,4.94588 0.10775,0 0,0.10776 -0.10775,0 z m -0.21552,-0.006 0.11973,0 0,0.11973 -0.11973,0 z m -0.23944,-0.007 0.13303,0 0,0.13303 -0.13303,0 z m -0.26605,-0.007 0.14781,0 0,0.14781 -0.14781,0 z m -0.29562,-0.008 0.16423,0 0,0.16423 -0.16423,0 z m -0.32846,-0.009 0.18248,0 0,0.18248 -0.18248,0 z m -0.36496,-0.0101 0.20275,0 0,0.20275 -0.20275,0 z m -0.40552,-0.0113 0.22528,0 0,0.22528 -0.22528,0 z m -0.45056,-0.0125 0.25031,0 0,0.25031 -0.25031,0 z m -0.50064,-0.0139 0.27812,0 0,0.27813 -0.27812,0 z m -0.55625,-0.0154 0.30903,0 0,0.30903 -0.30903,0 z m -0.61807,-0.0172 0.34337,0 0,0.34336 -0.34337,0 z m -0.68674,-0.0191 0.38152,0 0,0.38152 -0.38152,0 z m -0.76303,-0.0212 0.42391,0 0,0.42391 -0.42391,0 z m -0.84784,-0.0235 0.47101,0 0,0.47102 -0.47101,0 z m -0.94201,-0.0262 0.52334,0 0,0.52335 -0.52334,0 z m -1.0467,-0.0291 0.5815,0 0,0.58149 -0.5815,0 z m -1.16299,-0.0323 0.64611,0 0,0.64611 -0.64611,0 z m -1.29224,-0.0359 0.7179,0 0,0.7179 -0.7179,0 z m -1.43579,-0.0399 0.79767,0 0,0.79767 -0.79767,0 z m -1.59534,-0.0443 0.8863,0 0,0.8863 -0.8863,0 z m -1.77258,-0.0493 0.98477,0 0,0.98477 -0.98477,0 z m -1.96954,-0.0547 1.09419,0 0,1.09419 -1.09419,0 z m -2.18839,-0.0608 1.21577,0 0,1.21576 -1.21577,0 z m -2.43152,-0.0675 1.35086,0 0,1.35085 -1.35086,0 z m -2.70169,-0.0751 1.50095,0 0,1.50095 -1.50095,0 z m -3.00189,-0.0834 1.66772,0 0,1.66771 -1.66772,0 z m -3.33545,-0.0927 1.85302,0 0,1.85302 -1.85302,0 z m -3.70605,-0.10293 2.05891,0 0,2.05891 -2.05891,0 z m -4.1178,-0.11438 2.28768,0 0,2.28768 -2.28768,0 z m -4.57538,-0.12711 2.54187,0 0,2.54187 -2.54187,0 z m -5.08371,-0.1412 2.8243,0 0,2.82429 -2.8243,0 z m -5.64859,-0.15692 3.13811,0 0,3.1381 -3.13811,0 z m -6.27621,-0.17435 3.48678,0 0,3.48678 -3.48678,0 z m -6.97357,-0.1937 3.8742,0 0,3.87421 -3.8742,0 z m -7.74842,-0.21524 4.30467,0 0,4.30468 -4.30467,0 z m -8.60934,-0.23913 4.78297,0 0,4.78297 -4.78297,0 z m -9.56594,-0.26572 5.31442,0 0,5.31441 -5.31442,0 z M 73.7118,2.04754 l 5.9049,0 0,5.9049 -5.9049,0 z M 61.902,1.71948 l 6.561,0 0,6.561 -6.561,0 z M 48.78,1.35501 l 7.29,0 0,7.29 -7.29,0 z M 34.2,0.94998 l 8.1,0 0,8.1 -8.1,0 z M 18,0.5 l 9,0 0,9 -9,0 z M 0,0 10,0 10,10 0,10 z"
       copytype="single_stretched"
       prop_scale="0.269"
       scale_y_rel="false"
       spacing="0"
       normal_offset="0"
       tang_offset="0"
       prop_units="false"
       vertical_pattern="false"
       fuse_tolerance="0" />
    <inkscape:path-effect
       effect="skeletal"
       id="path-effect5464"
       is_visible="true"
       pattern="M 0,0 1,0"
       copytype="single_stretched"
       prop_scale="1"
       scale_y_rel="false"
       spacing="0"
       normal_offset="0"
       tang_offset="0"
       prop_units="false"
       vertical_pattern="false"
       fuse_tolerance="0" />
    <inkscape:perspective
       sodipodi:type="inkscape:persp3d"
       inkscape:vp_x="0 : 526.18109 : 1"
       inkscape:vp_y="0 : 1000 : 0"
       inkscape:vp_z="744.09448 : 526.18109 : 1"
       inkscape:persp3d-origin="372.04724 : 350.78739 : 1"
       id="perspective10" />
    <filter
       id="filter3896"
       inkscape:label="Drop shadow"
       width="1.5"
       height="1.5"
       x="-.25"
       y="-.25">
      <feGaussianBlur
         id="feGaussianBlur3898"
         in="SourceAlpha"
         stdDeviation="2"
         result="blur" />
      <feColorMatrix
         id="feColorMatrix3900"
         result="bluralpha"
         type="matrix"
         values="1 0 0 0 0 0 1 0 0 0 0 0 1 0 0 0 0 0 0.5 0 " />
      <feOffset
         id="feOffset3902"
         in="bluralpha"
         dx="0"
         dy="4"
         result="offsetBlur" />
      <feMerge
         id="feMerge3904">
        <feMergeNode
           id="feMergeNode3906"
           in="offsetBlur" />
        <feMergeNode
           id="feMergeNode3908"
           in="SourceGraphic" />
      </feMerge>
    </filter>
    <linearGradient
       inkscape:collect="always"
       xlink:href="#linearGradient3920"
       id="linearGradient3926"
       x1="209.5"
       y1="364.86218"
       x2="209.375"
       y2="372.36218"
       gradientUnits="userSpaceOnUse" />
    <radialGradient
       inkscape:collect="always"
       xlink:href="#linearGradient3930"
       id="radialGradient3936"
       cx="209.29916"
       cy="386.53009"
       fx="209.29916"
       fy="386.53009"
       r="25.299169"
       gradientTransform="matrix(0.63437512,-0.64231357,0.64562348,0.63764412,-173.02792,274.49715)"
       gradientUnits="userSpaceOnUse" />
    <filter
       inkscape:collect="always"
       id="filter4016"
       x="-0.072846129"
       width="1.1456923"
       y="-0.14073074"
       height="1.2814615">
      <feGaussianBlur
         inkscape:collect="always"
         stdDeviation="1.5355846"
         id="feGaussianBlur4018" />
    </filter>
    <filter
       inkscape:collect="always"
       id="filter4030"
       x="-0.081339532"
       width="1.1626791"
       y="-0.11710715"
       height="1.2342143">
      <feGaussianBlur
         inkscape:collect="always"
         stdDeviation="1.713912"
         id="feGaussianBlur4032" />
    </filter>
  </defs>
  <sodipodi:namedview
     id="base"
     pagecolor="#ffffff"
     bordercolor="#666666"
     borderopacity="1.0"
     inkscape:pageopacity="0.0"
     inkscape:pageshadow="2"
     inkscape:zoom="8"
     inkscape:cx="210.2074"
     inkscape:cy="662.72049"
     inkscape:document-units="px"
     inkscape:current-layer="layer2"
     showgrid="false"
     inkscape:snap-nodes="false"
     inkscape:window-width="1366"
     inkscape:window-height="738"
     inkscape:window-x="0"
     inkscape:window-y="1"
     inkscape:window-maximized="1" />
  <metadata
     id="metadata7">
    <rdf:RDF>
      <cc:Work
         rdf:about="">
        <dc:format>image/svg+xml</dc:format>
        <dc:type
           rdf:resource="http://purl.org/dc/dcmitype/StillImage" />
        <dc:title />
      </cc:Work>
    </rdf:RDF>
  </metadata>
  <g
     inkscape:label="Layer 1"
     inkscape:groupmode="layer"
     id="layer1"
     sodipodi:insensitive="true">
    <path
       sodipodi:nodetypes="zzzczz"
       inkscape:connector-curvature="0"
       id="path3918"
       d="m 184,386.98718 c 0,-15.69623 14.70189,-23.32481 25,-23.375 10.29811,-0.0502 22.44235,-0.2939 24.375,1.5 1.93265,1.7939 0.99573,18.28456 1,23.25 0,10.73549 -10.46436,21.12825 -25,21.125 -14.53564,-0.003 -25.375,-6.80377 -25.375,-22.5 z"
       style="fill:#0000c3;fill-opacity:1;stroke:none" />
    <text
       xml:space="preserve"
       style="font-size:40px;font-style:normal;font-weight:normal;fill:#000000;fill-opacity:1;stroke:none;font-family:Bitstream Vera Sans"
       x="112.85714"
       y="248.07648"
       id="text3604"><tspan
         sodipodi:role="line"
         id="tspan3606"
         x="112.85714"
         y="248.07648" /></text>
    <g
       id="g2998"
       style="fill:#ffffff;fill-opacity:1">
      <path
         sodipodi:nodetypes="ccscscscccsscssscccccsscccscccsccccccscssccscscsscc"
         d="m 200.59709,387.58817 c -1e-5,1.86198 0.46223,3.32683 1.38672,4.39453 0.92446,1.05469 2.19399,1.58203 3.80859,1.58203 1.60154,0 2.85805,-0.53385 3.76954,-1.60156 0.92445,-1.06771 1.38669,-2.52604 1.38671,-4.375 -2e-5,-1.82291 -0.46877,-3.26822 -1.40625,-4.33594 -0.93752,-1.08072 -2.20054,-1.62108 -3.78906,-1.6211 -1.57554,2e-5 -2.83205,0.53387 -3.76953,1.60157 -0.92449,1.06772 -1.38673,2.51954 -1.38672,4.35547 m 10.64453,5.83984 c -0.78127,1.00261 -1.67971,1.74479 -2.69531,2.22656 -1.00263,0.46875 -2.1745,0.70313 -3.51562,0.70313 -2.2396,0 -4.06252,-0.80729 -5.46875,-2.42188 -1.39325,-1.6276 -2.08986,-3.74348 -2.08985,-6.34765 -1e-5,-2.60416 0.70311,-4.72004 2.10938,-6.34766 1.40623,-1.62759 3.22264,-2.44139 5.44922,-2.44141 1.34112,2e-5 2.5195,0.24742 3.53515,0.74219 1.0156,0.48179 1.90753,1.21747 2.67578,2.20703 l 0,-2.55859 2.79297,0 0,14.375 c 1.90101,-0.28646 3.38539,-1.15234 4.45313,-2.59766 1.08069,-1.45832 1.62106,-3.33983 1.62109,-5.64453 -3e-5,-1.39321 -0.20837,-2.70181 -0.625,-3.92578 -0.40368,-1.22394 -1.02217,-2.35675 -1.85547,-3.39844 -1.3542,-1.70571 -3.00784,-3.00779 -4.96094,-3.90625 -1.94013,-0.91143 -4.05601,-1.36716 -6.34765,-1.36719 -1.60158,3e-5 -3.13804,0.21487 -4.60938,0.64454 -1.47137,0.41669 -2.83204,1.04169 -4.08203,1.875 -2.04428,1.32814 -3.64584,3.07293 -4.80469,5.23437 -1.14584,2.14845 -1.71875,4.47918 -1.71875,6.99219 0,2.07032 0.37109,4.01042 1.11329,5.82031 0.7552,1.8099 1.84243,3.40495 3.26171,4.78516 1.36718,1.35416 2.94921,2.38281 4.7461,3.08593 1.79686,0.71615 3.89974,1.07422 5.76172,1.07422 0.66393,1.27252 0.26027,1.81878 0,2.79297 -2.19401,0 -4.68101,-0.42969 -6.81641,-1.28906 -2.13543,-0.84636 -4.03647,-2.08334 -5.70312,-3.71094 -1.66668,-1.6276 -2.93621,-3.50911 -3.8086,-5.64453 -0.8724,-2.14843 -1.30859,-4.45312 -1.30859,-6.91406 0,-2.36978 0.4427,-4.62889 1.32812,-6.77735 0.88541,-2.14841 2.14843,-4.03643 3.78907,-5.66406 1.67967,-1.65362 3.61978,-2.91664 5.82031,-3.78906 2.2005,-0.88539 4.53123,-1.3281 6.99219,-1.32813 2.76039,3e-5 5.31898,0.56644 7.67578,1.69922 2.36976,1.13284 4.35543,2.74091 5.95703,4.82422 0.97653,1.27606 1.71871,2.66278 2.22656,4.16016 0.5208,1.49741 0.78121,3.04689 0.78125,4.64844 -4e-5,3.42448 -1.03519,6.1263 -3.10547,8.10546 -2.07034,1.97917 -4.92841,3.00782 -8.57422,3.08594 l 0,-3.00781"
         style="font-size:40px;font-style:normal;font-weight:normal;fill:#ffffff;fill-opacity:1;stroke:none;font-family:Bitstream Vera Sans"
         id="path3613"
         inkscape:connector-curvature="0" />
      <path
         inkscape:connector-curvature="0"
         inkscape:original-d="m 205.84679,403.63252 c 12.92792,-0.0958 16.55707,-2.3928 20.22216,-7.14092 3.66509,-4.74812 3.13159,-6.94994 3.22605,-10.93108 0.0945,-3.98115 -1.297,-8.36722 -1.89657,-10.14328 -0.59957,-1.77606 -1.36696,-4.21377 -1.41442,-5.31609 -0.0475,-1.10232 0.63126,-2.90757 1.60516,-3.5611 0.9739,-0.65353 2.39922,-0.93901 2.90837,-0.92472"
         inkscape:path-effect="#path-effect5616"
         sodipodi:nodetypes="czzzzzc"
         id="path3629"
         d="m 230.46329,365.59996 c 0.0115,2.2e-4 0.0231,4.9e-4 0.0347,8.2e-4 l -8.1e-4,0.029 c -0.0115,-3.2e-4 -0.0229,-5.9e-4 -0.0344,-8.1e-4 z m -0.0693,-0.002 c 0.0128,2e-5 0.0257,10e-5 0.0385,2.4e-4 l -3.6e-4,0.0322 c -0.0127,-1.5e-4 -0.0255,-2.3e-4 -0.0382,-2.5e-4 z m -0.0771,-0.001 c 0.0143,-2.6e-4 0.0285,-4.4e-4 0.0428,-5.4e-4 l 2.6e-4,0.0358 c -0.0141,10e-5 -0.0283,2.8e-4 -0.0424,5.4e-4 z m -0.0857,5.7e-4 c 0.0159,-6.2e-4 0.0317,-0.001 0.0476,-0.002 l 0.001,0.0397 c -0.0157,4.3e-4 -0.0314,9.6e-4 -0.0471,0.002 z m -0.0952,0.003 c 0.0176,-0.001 0.0352,-0.002 0.0528,-0.003 l 0.002,0.0441 c -0.0174,8.7e-4 -0.0348,0.002 -0.0523,0.003 z m -0.10574,0.006 c 0.0195,-0.002 0.0391,-0.003 0.0586,-0.005 l 0.004,0.0489 c -0.0193,0.001 -0.0387,0.003 -0.058,0.005 z m -0.11742,0.009 c 0.0217,-0.003 0.0434,-0.005 0.0651,-0.007 l 0.005,0.0543 c -0.0214,0.002 -0.0428,0.004 -0.0642,0.007 z m -0.1303,0.014 c 0.024,-0.004 0.0481,-0.007 0.0721,-0.01 l 0.008,0.0602 c -0.0237,0.003 -0.0474,0.006 -0.0711,0.01 z m -0.14445,0.0201 c 0.0266,-0.005 0.0532,-0.009 0.0799,-0.0136 l 0.0108,0.0666 c -0.0263,0.004 -0.0525,0.009 -0.0787,0.0134 z m -0.15999,0.0278 c 0.0294,-0.006 0.0589,-0.0124 0.0884,-0.0182 l 0.0145,0.0737 c -0.029,0.006 -0.058,0.0117 -0.087,0.018 z m -0.17691,0.0374 c 0.0325,-0.008 0.065,-0.0163 0.0976,-0.0239 l 0.019,0.0814 c -0.032,0.008 -0.064,0.0154 -0.0959,0.0236 z m -0.19528,0.0494 c 0.0358,-0.0107 0.0716,-0.021 0.10761,-0.0309 l 0.0247,0.0897 c -0.0353,0.01 -0.0705,0.0199 -0.10559,0.0304 z m -0.215,0.064 c 0.0393,-0.0136 0.0787,-0.0268 0.11828,-0.0395 l 0.0317,0.0986 c -0.0388,0.0125 -0.0774,0.0254 -0.11591,0.0388 z m -0.23596,0.082 c 0.043,-0.0172 0.0862,-0.0339 0.12956,-0.0499 l 0.0401,0.10805 c -0.0425,0.0158 -0.0847,0.0321 -0.12679,0.0489 z m -0.25789,0.10381 c 0.0468,-0.0215 0.0939,-0.0423 0.14127,-0.0625 l 0.0503,0.11791 c -0.0463,0.0197 -0.0923,0.0401 -0.13807,0.0611 z m -0.2803,0.12995 c 0.0506,-0.0266 0.10167,-0.0525 0.15312,-0.0776 l 0.0624,0.12795 c -0.0502,0.0245 -0.10004,0.0497 -0.14948,0.0756 z m -0.30247,0.16108 c 0.0543,-0.0326 0.1092,-0.0644 0.16465,-0.0954 l 0.0768,0.13785 c -0.0541,0.0301 -0.10761,0.061 -0.1606,0.0926 z m -0.3238,0.19848 c 0.0166,-0.0117 0.0333,-0.0232 0.0502,-0.0346 0.0414,-0.0279 0.0833,-0.0554 0.12556,-0.0824 l 0.0937,0.1471 c -0.0412,0.0261 -0.082,0.0527 -0.12237,0.0796 -0.016,0.0106 -0.0318,0.0215 -0.0475,0.0324 z m -0.33603,0.25925 c 0.0577,-0.0533 0.11739,-0.10453 0.17898,-0.15361 l 0.11962,0.15046 c -0.0579,0.0459 -0.11408,0.0941 -0.16842,0.14422 z m -0.33139,0.33587 c 0.0557,-0.0677 0.1138,-0.13324 0.17432,-0.19649 l 0.15433,0.14744 c -0.0566,0.0594 -0.11102,0.12104 -0.16318,0.18482 z m -0.31539,0.42339 c 0.0513,-0.0839 0.1056,-0.16563 0.16291,-0.24504 l 0.19384,0.13929 c -0.0533,0.0746 -0.10394,0.15152 -0.15176,0.23052 z m -0.28392,0.52029 c 0.0437,-0.10137 0.0912,-0.2009 0.1424,-0.2982 l 0.23739,0.12424 c -0.0475,0.0913 -0.0916,0.18481 -0.1322,0.28014 z m -0.23147,0.62306 c 0.0319,-0.11934 0.0684,-0.23743 0.1097,-0.35369 l 0.28327,0.10006 c -0.0382,0.10878 -0.0722,0.21937 -0.10198,0.33119 z m -0.15098,0.725 c 0.0144,-0.13622 0.0346,-0.27225 0.0608,-0.40733 l 0.32832,0.0639 c -0.0246,0.12576 -0.0439,0.25244 -0.058,0.37929 z m -0.0337,0.81441 c -0.002,-0.0315 -0.004,-0.0631 -0.005,-0.0948 -0.006,-0.11831 -0.007,-0.23749 -0.004,-0.35705 l 0.36713,0.0119 c -0.004,0.11039 -0.004,0.22038 -3.1e-4,0.32947 0.001,0.0294 0.003,0.0587 0.004,0.0881 z m 0.10049,0.88445 c -0.0322,-0.16098 -0.06,-0.32331 -0.0816,-0.48713 l 0.39923,-0.0527 c 0.0203,0.15335 0.0469,0.30664 0.078,0.46 z m 0.21198,0.95659 c -0.0482,-0.17351 -0.0951,-0.34848 -0.13839,-0.52508 l 0.4367,-0.1075 c 0.0421,0.17034 0.0881,0.341 0.13554,0.51216 z m 0.27133,1.03973 c -0.0501,-0.16978 -0.0992,-0.33993 -0.14723,-0.51048 -0.006,-0.021 -0.012,-0.0421 -0.018,-0.0631 l 0.48004,-0.13558 c 0.006,0.0212 0.0119,0.0424 0.0178,0.0637 0.0474,0.1684 0.0959,0.33653 0.14545,0.50443 z m 0.32516,1.14912 c -0.0673,-0.21046 -0.13359,-0.42137 -0.19853,-0.63281 l 0.52941,-0.16262 c 0.0643,0.20916 0.12989,0.41802 0.19665,0.62666 z m 0.38543,1.26772 c -0.0784,-0.2322 -0.15609,-0.4648 -0.23279,-0.6979 l 0.5846,-0.19236 c 0.0761,0.23133 0.15333,0.46247 0.23128,0.6935 z m 0.41743,1.40069 c -0.08,-0.25852 -0.16203,-0.51641 -0.24576,-0.77363 l 0.65115,-0.21252 c 0.0851,0.26009 0.16848,0.52115 0.24978,0.78312 z m 0.41591,1.5682 c -0.0782,-0.28953 -0.15977,-0.57843 -0.24424,-0.86663 l 0.73171,-0.21457 c 0.086,0.29311 0.16902,0.58733 0.24863,0.88259 z m 0.38339,1.75321 c -0.0696,-0.3238 -0.14464,-0.647 -0.22433,-0.96951 l 0.82191,-0.20267 c 0.0813,0.33046 0.15786,0.66217 0.22896,0.99502 z m 0.30185,1.95572 c -0.0505,-0.36135 -0.10933,-0.72221 -0.17546,-1.08247 l 0.92255,-0.16855 c 0.0678,0.37266 0.12811,0.74669 0.1801,1.12195 z m 0.14521,2.1749 c -0.0155,-0.40204 -0.0433,-0.80385 -0.0823,-1.20524 l 1.03423,-0.10017 c 0.0406,0.42024 0.0698,0.84194 0.0865,1.26492 z m -0.0627,2.46289 c 5.7e-4,-0.41986 0.002,-0.84361 0.013,-1.2702 0.001,-0.0404 0.002,-0.0807 0.003,-0.1211 l 1.15729,0.0198 c -6.5e-4,0.0429 -0.001,0.0858 -0.002,0.12879 -0.009,0.40979 -0.009,0.82481 -0.009,1.24397 z m -0.14773,2.69585 c 0.0473,-0.48336 0.0673,-0.97672 0.076,-1.47812 l 1.28795,0.0248 c -0.011,0.52181 -0.0349,1.04894 -0.0878,1.57941 z m -0.74507,2.74891 c 0.20175,-0.48991 0.36398,-0.98993 0.47591,-1.50095 l 1.39197,0.31459 c -0.138,0.59483 -0.32557,1.1696 -0.5519,1.72518 z m -1.66342,2.77928 c 0.35035,-0.50147 0.67857,-1.01264 0.96983,-1.53471 l 1.39129,0.76941 c -0.32,0.58324 -0.67594,1.14314 -1.05299,1.68091 z m -2.38819,2.75854 c 0.47027,-0.47637 0.91723,-0.98134 1.34102,-1.50572 l 1.3772,1.10774 c -0.45626,0.56975 -0.94341,1.12021 -1.46159,1.64217 z m -3.15082,2.35695 c 0.62174,-0.35841 1.21495,-0.77488 1.77979,-1.23677 l 1.23391,1.51776 c -0.64095,0.5184 -1.32088,0.99152 -2.03994,1.40672 z m -4.10813,1.44927 c 0.79686,-0.19822 1.57766,-0.44018 2.33853,-0.73604 l 0.77792,2.03277 c -0.85408,0.32215 -1.71955,0.58714 -2.59253,0.80515 z m -4.95231,0.62464 c 0.93698,-0.0706 1.8631,-0.16994 2.77306,-0.31186 l 0.37904,2.3855 c -0.98521,0.15921 -1.97488,0.27136 -2.96369,0.3504 z m -5.71066,0.0571 c 1.06543,-0.0137 2.12977,-0.0281 3.18572,-0.0622 l 0.0866,2.7065 c -1.09424,0.0347 -2.1808,0.0435 -3.25239,0.0456 z"
         style="fill:#ffffff;fill-opacity:1;stroke:none" />
    </g>
  </g>
  <g
     inkscape:groupmode="layer"
     id="layer2"
     inkscape:label="Shading"
     style="display:inline">
    <path
       style="fill:#000000;stroke:none;stroke-width:0.10000000000000001;stroke-miterlimit:4;stroke-opacity:1;stroke-dasharray:none;fill-opacity:1;opacity:0.50000000000000000;filter:url(#filter4030)"
       d="M 234.5625 376.21875 C 234.51403 380.41449 234.37321 384.51449 234.375 386.59375 C 234.375 397.32924 223.91064 407.722 209.375 407.71875 C 195.43496 407.71587 184.90289 401.45108 184.0625 387.09375 C 184.02066 387.66985 184 388.24413 184 388.84375 C 184 404.53998 194.83936 411.34075 209.375 411.34375 C 223.91064 411.347 234.375 400.95424 234.375 390.21875 C 234.37269 387.5309 234.61768 381.50162 234.5625 376.21875 z "
       id="path4023" />
    <path
       style="fill:none;stroke:none"
       d="m 184,386.98718 c 0,-15.69623 14.70189,-23.32481 25,-23.375 10.29811,-0.0502 22.44235,-0.2939 24.375,1.5 1.93265,1.7939 0.99573,18.28456 1,23.25 0,10.73549 -10.46436,21.12825 -25,21.125 -14.53564,-0.003 -25.375,-6.80377 -25.375,-22.5 z"
       id="path3960"
       inkscape:connector-curvature="0"
       sodipodi:nodetypes="zzzczz" />
    <path
       style="opacity:0.5;fill:#ffffff;stroke:none;filter:url(#filter4016)"
       d="m 216.875,360.125 c -2.61689,0.002 -5.30047,0.0187 -7.875,0.0312 -10.29811,0.0502 -25,7.67877 -25,23.375 0,0.95882 0.0457,1.88834 0.125,2.78125 1.43674,-14.0413 15.12765,-20.88999 24.875,-20.9375 10.29811,-0.0502 22.44235,-0.2939 24.375,1.5 0.85288,0.79165 1.1248,4.4876 1.1875,8.75 0.0979,-6.14322 0.006,-12.86064 -1.1875,-13.96875 -1.44949,-1.34543 -8.64932,-1.53688 -16.5,-1.53125 z"
       id="path3996"
       inkscape:connector-curvature="0" />
  </g>
</svg>
