<?xml version="1.0" encoding="UTF-8" standalone="no"?>
<!-- Created with Inkscape (http://www.inkscape.org/) -->

<svg
   xmlns:dc="http://purl.org/dc/elements/1.1/"
   xmlns:cc="http://creativecommons.org/ns#"
   xmlns:rdf="http://www.w3.org/1999/02/22-rdf-syntax-ns#"
   xmlns:svg="http://www.w3.org/2000/svg"
   xmlns="http://www.w3.org/2000/svg"
   xmlns:sodipodi="http://sodipodi.sourceforge.net/DTD/sodipodi-0.dtd"
   xmlns:inkscape="http://www.inkscape.org/namespaces/inkscape"
   width="744.09448819"
   height="1052.3622047"
   id="svg2"
   version="1.1"
   inkscape:version="0.47 r22583"
   sodipodi:docname="New document 1">
  <defs
     id="defs4">
    <inkscape:perspective
       sodipodi:type="inkscape:persp3d"
       inkscape:vp_x="0 : 526.18109 : 1"
       inkscape:vp_y="0 : 1000 : 0"
       inkscape:vp_z="744.09448 : 526.18109 : 1"
       inkscape:persp3d-origin="372.04724 : 350.78739 : 1"
       id="perspective10" />
  </defs>
  <sodipodi:namedview
     id="base"
     pagecolor="#ffffff"
     bordercolor="#666666"
     borderopacity="1.0"
     inkscape:pageopacity="0.0"
     inkscape:pageshadow="2"
     inkscape:zoom="9.6280903"
     inkscape:cx="204.84328"
     inkscape:cy="658.22549"
     inkscape:document-units="px"
     inkscape:current-layer="layer1"
     showgrid="false"
     inkscape:snap-nodes="false"
     inkscape:window-width="1200"
     inkscape:window-height="1507"
     inkscape:window-x="1196"
     inkscape:window-y="32"
     inkscape:window-maximized="1" />
  <metadata
     id="metadata7">
    <rdf:RDF>
      <cc:Work
         rdf:about="">
        <dc:format>image/svg+xml</dc:format>
        <dc:type
           rdf:resource="http://purl.org/dc/dcmitype/StillImage" />
        <dc:title></dc:title>
      </cc:Work>
    </rdf:RDF>
  </metadata>
  <g
     inkscape:label="Layer 1"
     inkscape:groupmode="layer"
     id="layer1">
    <text
       xml:space="preserve"
       style="font-size:40px;font-style:normal;font-weight:normal;fill:#000000;fill-opacity:1;stroke:none;font-family:Bitstream Vera Sans"
       x="112.85714"
       y="248.07648"
       id="text3604"><tspan
         sodipodi:role="line"
         id="tspan3606"
         x="112.85714"
         y="248.07648" /></text>
    <path
       id="path3613"
       style="font-size:40px;font-style:normal;font-weight:normal;fill:#000000;fill-opacity:1;stroke:none;font-family:Bitstream Vera Sans"
       d="m 200.59709,387.58817 c -1e-5,1.86198 0.46223,3.32683 1.38672,4.39453 0.92446,1.05469 2.19399,1.58203 3.80859,1.58203 1.60154,0 2.85805,-0.53385 3.76954,-1.60156 0.92445,-1.06771 1.38669,-2.52604 1.38671,-4.375 -2e-5,-1.82291 -0.46877,-3.26822 -1.40625,-4.33594 -0.93752,-1.08072 -2.20054,-1.62108 -3.78906,-1.6211 -1.57554,2e-5 -2.83205,0.53387 -3.76953,1.60157 -0.92449,1.06772 -1.38673,2.51954 -1.38672,4.35547 m 10.64453,5.83984 c -0.78127,1.00261 -1.67971,1.74479 -2.69531,2.22656 -1.00263,0.46875 -2.1745,0.70313 -3.51562,0.70313 -2.2396,0 -4.06252,-0.80729 -5.46875,-2.42188 -1.39325,-1.6276 -2.08986,-3.74348 -2.08985,-6.34765 -1e-5,-2.60416 0.70311,-4.72004 2.10938,-6.34766 1.40623,-1.62759 3.22264,-2.44139 5.44922,-2.44141 1.34112,2e-5 2.5195,0.24742 3.53515,0.74219 1.0156,0.48179 1.90753,1.21747 2.67578,2.20703 l 0,-2.55859 2.79297,0 0,14.375 c 1.90101,-0.28646 3.38539,-1.15234 4.45313,-2.59766 1.08069,-1.45832 1.62106,-3.33983 1.62109,-5.64453 -3e-5,-1.39321 -0.20837,-2.70181 -0.625,-3.92578 -0.40368,-1.22394 -1.02217,-2.35675 -1.85547,-3.39844 -1.3542,-1.70571 -3.00784,-3.00779 -4.96094,-3.90625 -1.94013,-0.91143 -4.05601,-1.36716 -6.34765,-1.36719 -1.60158,3e-5 -3.13804,0.21487 -4.60938,0.64454 -1.47137,0.41669 -2.83204,1.04169 -4.08203,1.875 -2.04428,1.32814 -3.64584,3.07293 -4.80469,5.23437 -1.14584,2.14845 -1.71875,4.47918 -1.71875,6.99219 0,2.07032 0.37109,4.01042 1.11329,5.82031 0.7552,1.8099 1.84243,3.40495 3.26171,4.78516 1.36718,1.35416 2.94921,2.38281 4.7461,3.08593 1.79686,0.71615 3.89974,1.07422 5.76172,1.07422 0.66393,1.27252 0.26027,1.81878 0,2.79297 -2.19401,0 -4.68101,-0.42969 -6.81641,-1.28906 -2.13543,-0.84636 -4.03647,-2.08334 -5.70312,-3.71094 -1.66668,-1.6276 -2.93621,-3.50911 -3.8086,-5.64453 -0.8724,-2.14843 -1.30859,-4.45312 -1.30859,-6.91406 0,-2.36978 0.4427,-4.62889 1.32812,-6.77735 0.88541,-2.14841 2.14843,-4.03643 3.78907,-5.66406 1.67967,-1.65362 3.61978,-2.91664 5.82031,-3.78906 2.2005,-0.88539 4.53123,-1.3281 6.99219,-1.32813 2.76039,3e-5 5.31898,0.56644 7.67578,1.69922 2.36976,1.13284 4.35543,2.74091 5.95703,4.82422 0.97653,1.27606 1.71871,2.66278 2.22656,4.16016 0.5208,1.49741 0.78121,3.04689 0.78125,4.64844 -4e-5,3.42448 -1.03519,6.1263 -3.10547,8.10546 -2.07034,1.97917 -4.92841,3.00782 -8.57422,3.08594 l 0,-3.00781"
       sodipodi:nodetypes="ccscscscccsscssscccccsscccscccsccccccscssccscscsscc" />
    <path
       style="fill:none;stroke:#000000;stroke-width:2.8;stroke-linecap:butt;stroke-linejoin:miter;stroke-miterlimit:4;stroke-opacity:1;stroke-dasharray:2.8,2.8;stroke-dashoffset:0"
       d="m 205.84679,403.63252 c 9.00099,-0.52423 12.54252,-1.20639 19.20285,-7.57751 6.66034,-6.37112 3.53887,-17.11249 2.34879,-20.63777 -1.19008,-3.52528 -1.66073,-4.94819 -1.48786,-6.30756 0.17287,-1.35937 0.63046,-2.63162 2.30178,-2.88122 1.67131,-0.2496 4.03168,2.43806 3.84313,3.33365"
       id="path3629"
       sodipodi:nodetypes="czzzzc" />
  </g>
</svg>
