<?xml version="1.0" encoding="UTF-8" standalone="no"?>
<!-- Created with Inkscape (http://www.inkscape.org/) -->

<svg
   xmlns:dc="http://purl.org/dc/elements/1.1/"
   xmlns:cc="http://creativecommons.org/ns#"
   xmlns:rdf="http://www.w3.org/1999/02/22-rdf-syntax-ns#"
   xmlns:svg="http://www.w3.org/2000/svg"
   xmlns="http://www.w3.org/2000/svg"
   xmlns:sodipodi="http://sodipodi.sourceforge.net/DTD/sodipodi-0.dtd"
   xmlns:inkscape="http://www.inkscape.org/namespaces/inkscape"
   width="744.09448819"
   height="1052.3622047"
   id="svg2"
   version="1.1"
   inkscape:version="0.48.1 r9760"
   sodipodi:docname="icon.svg">
  <defs
     id="defs4">
    <inkscape:path-effect
       effect="skeletal"
       id="path-effect5616"
       is_visible="true"
       pattern="m 178.06046,4.94588 0.10775,0 0,0.10776 -0.10775,0 z m -0.21552,-0.006 0.11973,0 0,0.11973 -0.11973,0 z m -0.23944,-0.007 0.13303,0 0,0.13303 -0.13303,0 z m -0.26605,-0.007 0.14781,0 0,0.14781 -0.14781,0 z m -0.29562,-0.008 0.16423,0 0,0.16423 -0.16423,0 z m -0.32846,-0.009 0.18248,0 0,0.18248 -0.18248,0 z m -0.36496,-0.0101 0.20275,0 0,0.20275 -0.20275,0 z m -0.40552,-0.0113 0.22528,0 0,0.22528 -0.22528,0 z m -0.45056,-0.0125 0.25031,0 0,0.25031 -0.25031,0 z m -0.50064,-0.0139 0.27812,0 0,0.27813 -0.27812,0 z m -0.55625,-0.0154 0.30903,0 0,0.30903 -0.30903,0 z m -0.61807,-0.0172 0.34337,0 0,0.34336 -0.34337,0 z m -0.68674,-0.0191 0.38152,0 0,0.38152 -0.38152,0 z m -0.76303,-0.0212 0.42391,0 0,0.42391 -0.42391,0 z m -0.84784,-0.0235 0.47101,0 0,0.47102 -0.47101,0 z m -0.94201,-0.0262 0.52334,0 0,0.52335 -0.52334,0 z m -1.0467,-0.0291 0.5815,0 0,0.58149 -0.5815,0 z m -1.16299,-0.0323 0.64611,0 0,0.64611 -0.64611,0 z m -1.29224,-0.0359 0.7179,0 0,0.7179 -0.7179,0 z m -1.43579,-0.0399 0.79767,0 0,0.79767 -0.79767,0 z m -1.59534,-0.0443 0.8863,0 0,0.8863 -0.8863,0 z m -1.77258,-0.0493 0.98477,0 0,0.98477 -0.98477,0 z m -1.96954,-0.0547 1.09419,0 0,1.09419 -1.09419,0 z m -2.18839,-0.0608 1.21577,0 0,1.21576 -1.21577,0 z m -2.43152,-0.0675 1.35086,0 0,1.35085 -1.35086,0 z m -2.70169,-0.0751 1.50095,0 0,1.50095 -1.50095,0 z m -3.00189,-0.0834 1.66772,0 0,1.66771 -1.66772,0 z m -3.33545,-0.0927 1.85302,0 0,1.85302 -1.85302,0 z m -3.70605,-0.10293 2.05891,0 0,2.05891 -2.05891,0 z m -4.1178,-0.11438 2.28768,0 0,2.28768 -2.28768,0 z m -4.57538,-0.12711 2.54187,0 0,2.54187 -2.54187,0 z m -5.08371,-0.1412 2.8243,0 0,2.82429 -2.8243,0 z m -5.64859,-0.15692 3.13811,0 0,3.1381 -3.13811,0 z m -6.27621,-0.17435 3.48678,0 0,3.48678 -3.48678,0 z m -6.97357,-0.1937 3.8742,0 0,3.87421 -3.8742,0 z m -7.74842,-0.21524 4.30467,0 0,4.30468 -4.30467,0 z m -8.60934,-0.23913 4.78297,0 0,4.78297 -4.78297,0 z m -9.56594,-0.26572 5.31442,0 0,5.31441 -5.31442,0 z M 73.7118,2.04754 l 5.9049,0 0,5.9049 -5.9049,0 z M 61.902,1.71948 l 6.561,0 0,6.561 -6.561,0 z M 48.78,1.35501 l 7.29,0 0,7.29 -7.29,0 z M 34.2,0.94998 l 8.1,0 0,8.1 -8.1,0 z M 18,0.5 l 9,0 0,9 -9,0 z M 0,0 10,0 10,10 0,10 z"
       copytype="single_stretched"
       prop_scale="0.269"
       scale_y_rel="false"
       spacing="0"
       normal_offset="0"
       tang_offset="0"
       prop_units="false"
       vertical_pattern="false"
       fuse_tolerance="0" />
    <inkscape:path-effect
       effect="skeletal"
       id="path-effect5464"
       is_visible="true"
       pattern="M 0,0 1,0"
       copytype="single_stretched"
       prop_scale="1"
       scale_y_rel="false"
       spacing="0"
       normal_offset="0"
       tang_offset="0"
       prop_units="false"
       vertical_pattern="false"
       fuse_tolerance="0" />
    <inkscape:perspective
       sodipodi:type="inkscape:persp3d"
       inkscape:vp_x="0 : 526.18109 : 1"
       inkscape:vp_y="0 : 1000 : 0"
       inkscape:vp_z="744.09448 : 526.18109 : 1"
       inkscape:persp3d-origin="372.04724 : 350.78739 : 1"
       id="perspective10" />
  </defs>
  <sodipodi:namedview
     id="base"
     pagecolor="#ffffff"
     bordercolor="#666666"
     borderopacity="1.0"
     inkscape:pageopacity="0.0"
     inkscape:pageshadow="2"
     inkscape:zoom="8"
     inkscape:cx="206.63266"
     inkscape:cy="668.78891"
     inkscape:document-units="px"
     inkscape:current-layer="layer1"
     showgrid="false"
     inkscape:snap-nodes="false"
     inkscape:window-width="1366"
     inkscape:window-height="738"
     inkscape:window-x="0"
     inkscape:window-y="1"
     inkscape:window-maximized="1" />
  <metadata
     id="metadata7">
    <rdf:RDF>
      <cc:Work
         rdf:about="">
        <dc:format>image/svg+xml</dc:format>
        <dc:type
           rdf:resource="http://purl.org/dc/dcmitype/StillImage" />
        <dc:title />
      </cc:Work>
    </rdf:RDF>
  </metadata>
  <g
     inkscape:label="Layer 1"
     inkscape:groupmode="layer"
     id="layer1">
    <text
       xml:space="preserve"
       style="font-size:40px;font-style:normal;font-weight:normal;fill:#000000;fill-opacity:1;stroke:none;font-family:Bitstream Vera Sans"
       x="112.85714"
       y="248.07648"
       id="text3604"><tspan
         sodipodi:role="line"
         id="tspan3606"
         x="112.85714"
         y="248.07648" /></text>
    <path
       id="path3613"
       style="font-size:40px;font-style:normal;font-weight:normal;fill:#000000;fill-opacity:1;stroke:none;font-family:Bitstream Vera Sans"
       d="m 200.59709,387.58817 c -1e-5,1.86198 0.46223,3.32683 1.38672,4.39453 0.92446,1.05469 2.19399,1.58203 3.80859,1.58203 1.60154,0 2.85805,-0.53385 3.76954,-1.60156 0.92445,-1.06771 1.38669,-2.52604 1.38671,-4.375 -2e-5,-1.82291 -0.46877,-3.26822 -1.40625,-4.33594 -0.93752,-1.08072 -2.20054,-1.62108 -3.78906,-1.6211 -1.57554,2e-5 -2.83205,0.53387 -3.76953,1.60157 -0.92449,1.06772 -1.38673,2.51954 -1.38672,4.35547 m 10.64453,5.83984 c -0.78127,1.00261 -1.67971,1.74479 -2.69531,2.22656 -1.00263,0.46875 -2.1745,0.70313 -3.51562,0.70313 -2.2396,0 -4.06252,-0.80729 -5.46875,-2.42188 -1.39325,-1.6276 -2.08986,-3.74348 -2.08985,-6.34765 -1e-5,-2.60416 0.70311,-4.72004 2.10938,-6.34766 1.40623,-1.62759 3.22264,-2.44139 5.44922,-2.44141 1.34112,2e-5 2.5195,0.24742 3.53515,0.74219 1.0156,0.48179 1.90753,1.21747 2.67578,2.20703 l 0,-2.55859 2.79297,0 0,14.375 c 1.90101,-0.28646 3.38539,-1.15234 4.45313,-2.59766 1.08069,-1.45832 1.62106,-3.33983 1.62109,-5.64453 -3e-5,-1.39321 -0.20837,-2.70181 -0.625,-3.92578 -0.40368,-1.22394 -1.02217,-2.35675 -1.85547,-3.39844 -1.3542,-1.70571 -3.00784,-3.00779 -4.96094,-3.90625 -1.94013,-0.91143 -4.05601,-1.36716 -6.34765,-1.36719 -1.60158,3e-5 -3.13804,0.21487 -4.60938,0.64454 -1.47137,0.41669 -2.83204,1.04169 -4.08203,1.875 -2.04428,1.32814 -3.64584,3.07293 -4.80469,5.23437 -1.14584,2.14845 -1.71875,4.47918 -1.71875,6.99219 0,2.07032 0.37109,4.01042 1.11329,5.82031 0.7552,1.8099 1.84243,3.40495 3.26171,4.78516 1.36718,1.35416 2.94921,2.38281 4.7461,3.08593 1.79686,0.71615 3.89974,1.07422 5.76172,1.07422 0.66393,1.27252 0.26027,1.81878 0,2.79297 -2.19401,0 -4.68101,-0.42969 -6.81641,-1.28906 -2.13543,-0.84636 -4.03647,-2.08334 -5.70312,-3.71094 -1.66668,-1.6276 -2.93621,-3.50911 -3.8086,-5.64453 -0.8724,-2.14843 -1.30859,-4.45312 -1.30859,-6.91406 0,-2.36978 0.4427,-4.62889 1.32812,-6.77735 0.88541,-2.14841 2.14843,-4.03643 3.78907,-5.66406 1.67967,-1.65362 3.61978,-2.91664 5.82031,-3.78906 2.2005,-0.88539 4.53123,-1.3281 6.99219,-1.32813 2.76039,3e-5 5.31898,0.56644 7.67578,1.69922 2.36976,1.13284 4.35543,2.74091 5.95703,4.82422 0.97653,1.27606 1.71871,2.66278 2.22656,4.16016 0.5208,1.49741 0.78121,3.04689 0.78125,4.64844 -4e-5,3.42448 -1.03519,6.1263 -3.10547,8.10546 -2.07034,1.97917 -4.92841,3.00782 -8.57422,3.08594 l 0,-3.00781"
       sodipodi:nodetypes="ccscscscccsscssscccccsscccscccsccccccscssccscscsscc" />
    <path
       style="fill:#000000;stroke:#000000;stroke-width:0.1;stroke-linecap:butt;stroke-linejoin:miter;stroke-miterlimit:4;stroke-opacity:1;stroke-dasharray:none;stroke-dashoffset:0"
       d="m 230.46376,365.59997 c 0.0114,2.2e-4 0.0228,4.9e-4 0.0342,8.1e-4 l -8.1e-4,0.029 c -0.0113,-3.1e-4 -0.0226,-5.8e-4 -0.0339,-8e-4 z m -0.0684,-0.002 c 0.0127,3e-5 0.0253,1.1e-4 0.038,2.5e-4 l -3.7e-4,0.0322 c -0.0126,-1.5e-4 -0.0251,-2.3e-4 -0.0377,-2.5e-4 z m -0.076,-0.001 c 0.0141,-2.5e-4 0.0282,-4.2e-4 0.0422,-5.1e-4 l 2.4e-4,0.0358 c -0.0139,9e-5 -0.0279,2.6e-4 -0.0419,5e-4 z m -0.0845,4.7e-4 c 0.0156,-6e-4 0.0313,-0.001 0.0469,-0.002 l 0.001,0.0397 c -0.0155,4.2e-4 -0.031,9.2e-4 -0.0465,0.002 z m -0.0939,0.003 c 0.0174,-0.001 0.0347,-0.002 0.0521,-0.003 l 0.002,0.0441 c -0.0172,8.4e-4 -0.0344,0.002 -0.0515,0.003 z m -0.10432,0.005 c 0.0193,-0.002 0.0386,-0.003 0.0579,-0.005 l 0.004,0.0489 c -0.0191,0.001 -0.0381,0.003 -0.0572,0.005 z m -0.11585,0.009 c 0.0214,-0.002 0.0428,-0.005 0.0642,-0.007 l 0.005,0.0543 c -0.0211,0.002 -0.0423,0.004 -0.0634,0.007 z m -0.12857,0.0135 c 0.0237,-0.003 0.0474,-0.007 0.0712,-0.01 l 0.008,0.0602 c -0.0234,0.003 -0.0468,0.006 -0.0702,0.01 z m -0.14255,0.0195 c 0.0262,-0.005 0.0525,-0.009 0.0789,-0.0132 l 0.0106,0.0667 c -0.0259,0.004 -0.0518,0.008 -0.0777,0.0131 z m -0.1579,0.0269 c 0.029,-0.006 0.0581,-0.0121 0.0873,-0.0177 l 0.0142,0.0737 c -0.0286,0.006 -0.0573,0.0114 -0.0858,0.0175 z m -0.17463,0.0363 c 0.0321,-0.008 0.0642,-0.0158 0.0964,-0.0233 l 0.0188,0.0814 c -0.0316,0.007 -0.0632,0.0149 -0.0947,0.0229 z m -0.19281,0.0479 c 0.0353,-0.0104 0.0707,-0.0205 0.10626,-0.0301 l 0.0244,0.0898 c -0.0348,0.009 -0.0696,0.0194 -0.10426,0.0296 z m -0.21236,0.0623 c 0.0388,-0.0133 0.0778,-0.0261 0.11684,-0.0385 l 0.0313,0.0987 c -0.0383,0.0121 -0.0764,0.0247 -0.11448,0.0378 z m -0.23314,0.0798 c 0.0425,-0.0168 0.0852,-0.033 0.12803,-0.0487 l 0.0396,0.10821 c -0.0419,0.0154 -0.0837,0.0313 -0.12529,0.0477 z m -0.25495,0.10108 c 0.0463,-0.021 0.0928,-0.0413 0.13968,-0.061 l 0.0497,0.11814 c -0.0457,0.0193 -0.0913,0.0391 -0.1365,0.0596 z m -0.2773,0.12663 c 0.0501,-0.0259 0.10061,-0.0512 0.1515,-0.0757 l 0.0618,0.1283 c -0.0497,0.0239 -0.099,0.0485 -0.14789,0.0738 z m -0.29953,0.15711 c 0.0538,-0.0319 0.10818,-0.0629 0.16309,-0.0932 l 0.0761,0.13836 c -0.0535,0.0294 -0.10655,0.0595 -0.15904,0.0904 z m -0.3207,0.19318 c 0.005,-0.003 0.01,-0.007 0.0144,-0.01 0.0525,-0.0354 0.10571,-0.0701 0.15954,-0.104 l 0.0928,0.14783 c -0.0524,0.0328 -0.10427,0.0663 -0.15548,0.10049 -0.005,0.003 -0.009,0.006 -0.0136,0.009 z m -0.3355,0.25102 c 0.0577,-0.0517 0.11737,-0.10145 0.17887,-0.14902 l 0.11748,0.15228 c -0.0579,0.0445 -0.11395,0.0911 -0.1683,0.13977 z m -0.332,0.3262 c 0.056,-0.0659 0.11424,-0.12965 0.17488,-0.19113 l 0.152,0.14974 c -0.0567,0.0577 -0.11129,0.1176 -0.16368,0.17963 z m -0.31762,0.41235 c 0.0519,-0.0818 0.10668,-0.16158 0.16441,-0.23897 l 0.19142,0.1422 c -0.0537,0.0726 -0.10476,0.14761 -0.15311,0.22466 z m -0.28833,0.50813 c 0.0447,-0.0992 0.0931,-0.19652 0.14517,-0.2916 l 0.23506,0.12792 c -0.0482,0.0891 -0.0931,0.18055 -0.13468,0.2738 z m -0.2388,0.61036 c 0.0335,-0.11716 0.0715,-0.23298 0.11414,-0.34691 l 0.28134,0.10469 c -0.0394,0.10656 -0.0748,0.21499 -0.10596,0.32474 z m -0.16225,0.71279 c 0.0168,-0.13427 0.0393,-0.26818 0.0675,-0.40102 l 0.32725,0.0697 c -0.0264,0.12365 -0.0477,0.24835 -0.0639,0.37338 z m -0.0496,0.80469 c -0.007,-0.14807 -0.007,-0.29751 1.6e-4,-0.44731 l 0.36766,0.0193 c -0.008,0.13835 -0.009,0.27629 -0.005,0.41283 z m 0.0848,0.87555 c -0.0297,-0.15942 -0.0547,-0.32019 -0.0733,-0.48243 l 0.40007,-0.0458 c 0.0173,0.15131 0.0411,0.30253 0.0697,0.4538 z m 0.20043,0.94721 c -0.0469,-0.17184 -0.0919,-0.34513 -0.13295,-0.52005 l 0.43743,-0.10321 c 0.0399,0.16792 0.0839,0.33611 0.12993,0.50475 z m 0.26549,1.02712 c -0.0368,-0.12615 -0.073,-0.25251 -0.10867,-0.37908 -0.0176,-0.0619 -0.0354,-0.12404 -0.0532,-0.18634 l 0.48051,-0.13612 c 0.0175,0.0624 0.0351,0.12486 0.0525,0.18744 0.0352,0.12498 0.071,0.24982 0.10733,0.37452 z m 0.31732,1.13486 c -0.0659,-0.20783 -0.13075,-0.41612 -0.19424,-0.62493 l 0.52987,-0.16111 c 0.0628,0.20647 0.12697,0.41264 0.1923,0.61857 z m 0.37745,1.25186 c -0.077,-0.22926 -0.15328,-0.45894 -0.22849,-0.68911 l 0.58498,-0.19116 c 0.0746,0.2283 0.15036,0.45639 0.2269,0.68437 z m 0.4156,1.38172 c -0.0798,-0.25475 -0.16158,-0.50888 -0.2449,-0.76234 l 0.65024,-0.21436 c 0.0847,0.25616 0.16777,0.51328 0.24891,0.7713 z m 0.41672,1.54569 c -0.0787,-0.28534 -0.16053,-0.57004 -0.2451,-0.85405 l 0.73069,-0.21776 c 0.0861,0.28868 0.16942,0.57845 0.24951,0.86924 z m 0.38888,1.72832 c -0.0711,-0.31915 -0.14736,-0.6377 -0.228,-0.95557 l 0.82083,-0.20786 c 0.0823,0.32546 0.16004,0.65215 0.23267,0.97999 z m 0.31469,1.92841 c -0.0536,-0.35625 -0.1151,-0.712 -0.1835,-1.06713 l 0.92143,-0.17669 c 0.0701,0.36703 0.13311,0.73542 0.18822,1.10504 z m 0.16927,2.14525 c -0.0209,-0.3965 -0.0537,-0.79273 -0.097,-1.18853 l 1.03316,-0.11261 c 0.0449,0.41393 0.0791,0.82932 0.1014,1.246 z m -0.0596,2.40627 c 0.008,-0.30839 0.0147,-0.61814 0.0229,-0.92873 0.004,-0.1399 0.006,-0.27981 0.006,-0.41971 l 1.15641,0.001 c 7e-5,0.14853 -0.001,0.2972 -0.005,0.44603 -0.006,0.30797 -0.0122,0.61817 -0.0197,0.93004 z m -0.22223,2.65759 c 0.057,-0.48011 0.0921,-0.96846 0.11616,-1.46273 l 1.28771,0.0644 c -0.0265,0.51497 -0.0661,1.033 -0.12938,1.55177 z m -0.7378,2.73277 c 0.13742,-0.34232 0.25417,-0.69144 0.34737,-1.04709 0.0401,-0.14616 0.0767,-0.29352 0.11003,-0.44201 l 1.39201,0.30874 c -0.0369,0.16806 -0.0772,0.33603 -0.12133,0.50385 -0.11298,0.4125 -0.24985,0.81503 -0.40773,1.20729 z m -1.65251,2.6767 c 0.35959,-0.46965 0.68852,-0.95745 0.97571,-1.46231 l 1.37991,0.78012 c -0.32423,0.57665 -0.69111,1.12681 -1.08958,1.64941 z m -2.50368,2.51484 c 0.47157,-0.40693 0.92267,-0.83903 1.35093,-1.29735 0.0216,-0.023 0.043,-0.0461 0.0645,-0.0692 l 1.28912,1.20675 c -0.0238,0.0252 -0.0477,0.0504 -0.0717,0.0755 -0.47699,0.49831 -0.97589,0.96828 -1.49434,1.41096 -0.37951,-0.44223 -0.75901,-0.88445 -1.13852,-1.32668 z m -3.26812,2.15605 c 0.63565,-0.35507 1.25015,-0.74128 1.83972,-1.16029 l 1.12184,1.57916 c -0.6481,0.46023 -1.31972,0.88445 -2.0111,1.27431 z m -4.07285,1.66626 c 0.78048,-0.26206 1.54404,-0.55827 2.28552,-0.89091 l 0.89468,1.97598 c -0.80719,0.36856 -1.63453,0.6963 -2.47685,0.98548 z m -4.86407,1.05951 c 0.916,-0.14887 1.82377,-0.334 2.71621,-0.55851 l 0.60332,2.36939 c -0.96457,0.24834 -1.94181,0.45126 -2.92465,0.61188 z m -5.53945,0.34837 c 1.01936,-0.0188 2.04589,-0.0743 3.06987,-0.17072 l 0.24769,2.71089 c -1.10068,0.0977 -2.20029,0.14617 -3.2891,0.14967 z"
       id="path3629"
       sodipodi:nodetypes="czzzzzc"
       inkscape:path-effect="#path-effect5616"
       inkscape:original-d="m 205.84679,403.63252 c 9.05292,-0.0958 16.05707,-3.3928 19.72216,-7.26592 3.66509,-3.87312 3.63159,-6.82494 3.72605,-10.80608 0.0945,-3.98115 -1.297,-8.36722 -1.89657,-10.14328 -0.59957,-1.77606 -1.36696,-4.21377 -1.41442,-5.31609 -0.0475,-1.10232 0.63126,-2.90757 1.60516,-3.5611 0.9739,-0.65353 2.39922,-0.93901 2.90837,-0.92472"
       inkscape:connector-curvature="0" />
  </g>
</svg>
